<svg xmlns="http://www.w3.org/2000/svg" viewBox="0 0 800 450" width="800" height="450">
  <defs>
    <radialGradient id="spot" cx="0.5" cy="0.18" r="0.75"><stop offset="0" stop-color="#EAECEA" stop-opacity="0.28"/><stop offset="0.45" stop-color="#35B37E" stop-opacity="0.08"/><stop offset="1" stop-color="#141819" stop-opacity="0"/></radialGradient>
    <linearGradient id="bottle" x1="0" y1="0" x2="1" y2="0"><stop offset="0" stop-color="#0B0E0F"/><stop offset="0.18" stop-color="#35B37E"/><stop offset="0.32" stop-color="#1E6E4D"/><stop offset="0.8" stop-color="#0F2A20"/><stop offset="0.93" stop-color="#D8A33C" stop-opacity="0.9"/><stop offset="1" stop-color="#0B0E0F"/></linearGradient>
    <linearGradient id="plinth" x1="0" y1="0" x2="0" y2="1"><stop offset="0" stop-color="#2A3133"/><stop offset="1" stop-color="#101415"/></linearGradient>
    <linearGradient id="floor" x1="0" y1="0" x2="0" y2="1"><stop offset="0" stop-color="#1B2022"/><stop offset="1" stop-color="#0C0F10"/></linearGradient>
  </defs>
  <rect width="800" height="450" fill="#141819"/>
  <rect y="330" width="800" height="120" fill="url(#floor)"/>
  <rect width="800" height="450" fill="url(#spot)"/>
  <ellipse cx="400" cy="352" rx="150" ry="16" fill="#000" opacity="0.55"/>
  <rect x="290" y="300" width="220" height="52" rx="4" fill="url(#plinth)"/>
  <rect x="290" y="300" width="220" height="3" fill="#EAECEA" opacity="0.35"/>
  <path d="M372 118 h56 v26 q34 16 34 58 v92 q0 12 -12 12 h-100 q-12 0 -12 -12 v-92 q0 -42 34 -58 z" fill="url(#bottle)"/>
  <rect x="380" y="92" width="40" height="28" rx="4" fill="#D8A33C"/>
  <rect x="380" y="92" width="6" height="28" fill="#EAECEA" opacity="0.5"/>
  <rect x="356" y="210" width="88" height="48" rx="3" fill="#EAECEA" opacity="0.9"/>
  <rect x="368" y="224" width="64" height="5" fill="#141819"/>
  <rect x="378" y="236" width="44" height="3" fill="#8A928F"/>
  <g fill="#EAECEA" opacity="0.6"><circle cx="230" cy="140" r="1.6"/><circle cx="560" cy="110" r="1.2"/><circle cx="600" cy="190" r="2"/><circle cx="190" cy="220" r="1.2"/><circle cx="520" cy="70" r="1.6"/><circle cx="280" cy="80" r="1"/><circle cx="640" cy="260" r="1.4"/></g>
</svg>
